<mxfile host="app.diagrams.net" modified="2022-05-30T11:17:02.422Z" agent="5.0 (Windows)" etag="IhVecbBWaOXDEiRpQQ17" version="17.4.6" type="github">
  <diagram id="5rL87uHpCdDRNoGkGQVn" name="Page-1">
    <mxGraphModel dx="1102" dy="544" grid="1" gridSize="10" guides="1" tooltips="1" connect="1" arrows="1" fold="1" page="1" pageScale="1" pageWidth="850" pageHeight="1100" math="0" shadow="0">
      <root>
        <mxCell id="0" />
        <mxCell id="1" parent="0" />
        <mxCell id="FON76fKN3eNFH8ybnqgi-16" style="edgeStyle=orthogonalEdgeStyle;rounded=0;orthogonalLoop=1;jettySize=auto;html=1;entryX=0;entryY=0.5;entryDx=0;entryDy=0;" edge="1" parent="1" source="FON76fKN3eNFH8ybnqgi-1" target="FON76fKN3eNFH8ybnqgi-14">
          <mxGeometry relative="1" as="geometry">
            <Array as="points">
              <mxPoint x="410" y="70" />
            </Array>
          </mxGeometry>
        </mxCell>
        <mxCell id="FON76fKN3eNFH8ybnqgi-1" value="Course" style="ellipse;whiteSpace=wrap;html=1;" vertex="1" parent="1">
          <mxGeometry x="360" y="180" width="120" height="80" as="geometry" />
        </mxCell>
        <mxCell id="FON76fKN3eNFH8ybnqgi-3" value="Course" style="ellipse;whiteSpace=wrap;html=1;" vertex="1" parent="1">
          <mxGeometry x="350" y="200" width="120" height="80" as="geometry" />
        </mxCell>
        <mxCell id="FON76fKN3eNFH8ybnqgi-4" value="Course" style="ellipse;whiteSpace=wrap;html=1;" vertex="1" parent="1">
          <mxGeometry x="340" y="220" width="120" height="80" as="geometry" />
        </mxCell>
        <mxCell id="FON76fKN3eNFH8ybnqgi-5" value="Course" style="ellipse;whiteSpace=wrap;html=1;" vertex="1" parent="1">
          <mxGeometry x="330" y="240" width="120" height="80" as="geometry" />
        </mxCell>
        <mxCell id="FON76fKN3eNFH8ybnqgi-17" style="edgeStyle=orthogonalEdgeStyle;rounded=0;orthogonalLoop=1;jettySize=auto;html=1;entryX=1;entryY=0.5;entryDx=0;entryDy=0;" edge="1" parent="1" source="FON76fKN3eNFH8ybnqgi-9" target="FON76fKN3eNFH8ybnqgi-14">
          <mxGeometry relative="1" as="geometry" />
        </mxCell>
        <mxCell id="FON76fKN3eNFH8ybnqgi-9" value="Course" style="ellipse;whiteSpace=wrap;html=1;" vertex="1" parent="1">
          <mxGeometry x="600" y="180" width="120" height="80" as="geometry" />
        </mxCell>
        <mxCell id="FON76fKN3eNFH8ybnqgi-10" value="Course" style="ellipse;whiteSpace=wrap;html=1;" vertex="1" parent="1">
          <mxGeometry x="590" y="200" width="120" height="80" as="geometry" />
        </mxCell>
        <mxCell id="FON76fKN3eNFH8ybnqgi-11" value="Course" style="ellipse;whiteSpace=wrap;html=1;" vertex="1" parent="1">
          <mxGeometry x="580" y="220" width="120" height="80" as="geometry" />
        </mxCell>
        <mxCell id="FON76fKN3eNFH8ybnqgi-12" value="User" style="ellipse;whiteSpace=wrap;html=1;" vertex="1" parent="1">
          <mxGeometry x="570" y="240" width="120" height="80" as="geometry" />
        </mxCell>
        <mxCell id="FON76fKN3eNFH8ybnqgi-14" value="MSSQL Server" style="rounded=1;whiteSpace=wrap;html=1;" vertex="1" parent="1">
          <mxGeometry x="480" y="40" width="120" height="60" as="geometry" />
        </mxCell>
        <mxCell id="FON76fKN3eNFH8ybnqgi-15" value="Redis" style="rounded=1;whiteSpace=wrap;html=1;" vertex="1" parent="1">
          <mxGeometry x="70" y="40" width="120" height="60" as="geometry" />
        </mxCell>
        <mxCell id="FON76fKN3eNFH8ybnqgi-18" value="" style="shape=link;html=1;rounded=0;" edge="1" parent="1">
          <mxGeometry width="100" relative="1" as="geometry">
            <mxPoint x="350" y="360" as="sourcePoint" />
            <mxPoint x="680" y="360" as="targetPoint" />
          </mxGeometry>
        </mxCell>
        <mxCell id="FON76fKN3eNFH8ybnqgi-20" value="Load balancer" style="edgeLabel;html=1;align=center;verticalAlign=middle;resizable=0;points=[];" vertex="1" connectable="0" parent="FON76fKN3eNFH8ybnqgi-18">
          <mxGeometry x="0.7818" y="4" relative="1" as="geometry">
            <mxPoint as="offset" />
          </mxGeometry>
        </mxCell>
        <mxCell id="FON76fKN3eNFH8ybnqgi-19" value="" style="shape=link;html=1;rounded=0;" edge="1" parent="1">
          <mxGeometry width="100" relative="1" as="geometry">
            <mxPoint x="350" y="410" as="sourcePoint" />
            <mxPoint x="680" y="410" as="targetPoint" />
          </mxGeometry>
        </mxCell>
        <mxCell id="FON76fKN3eNFH8ybnqgi-21" value="Aws Api Gate Way" style="edgeLabel;html=1;align=center;verticalAlign=middle;resizable=0;points=[];" vertex="1" connectable="0" parent="FON76fKN3eNFH8ybnqgi-19">
          <mxGeometry x="0.7636" y="-5" relative="1" as="geometry">
            <mxPoint as="offset" />
          </mxGeometry>
        </mxCell>
        <mxCell id="FON76fKN3eNFH8ybnqgi-22" value="Actor" style="shape=umlActor;verticalLabelPosition=bottom;verticalAlign=top;html=1;outlineConnect=0;" vertex="1" parent="1">
          <mxGeometry x="510" y="500" width="30" height="60" as="geometry" />
        </mxCell>
        <mxCell id="FON76fKN3eNFH8ybnqgi-23" value="DevOps" style="shape=process;whiteSpace=wrap;html=1;backgroundOutline=1;" vertex="1" parent="1">
          <mxGeometry x="810" y="190" width="120" height="60" as="geometry" />
        </mxCell>
        <mxCell id="FON76fKN3eNFH8ybnqgi-25" style="edgeStyle=orthogonalEdgeStyle;rounded=0;orthogonalLoop=1;jettySize=auto;html=1;entryX=0.5;entryY=1;entryDx=0;entryDy=0;" edge="1" parent="1" source="FON76fKN3eNFH8ybnqgi-24" target="FON76fKN3eNFH8ybnqgi-5">
          <mxGeometry relative="1" as="geometry" />
        </mxCell>
        <mxCell id="FON76fKN3eNFH8ybnqgi-24" value="Url/Api/Course" style="text;html=1;align=center;verticalAlign=middle;resizable=0;points=[];autosize=1;strokeColor=none;fillColor=none;" vertex="1" parent="1">
          <mxGeometry x="390" y="420" width="100" height="20" as="geometry" />
        </mxCell>
        <mxCell id="FON76fKN3eNFH8ybnqgi-27" style="edgeStyle=orthogonalEdgeStyle;rounded=0;orthogonalLoop=1;jettySize=auto;html=1;entryX=0.267;entryY=0.963;entryDx=0;entryDy=0;entryPerimeter=0;" edge="1" parent="1" source="FON76fKN3eNFH8ybnqgi-26" target="FON76fKN3eNFH8ybnqgi-12">
          <mxGeometry relative="1" as="geometry">
            <mxPoint x="590" y="350" as="targetPoint" />
          </mxGeometry>
        </mxCell>
        <mxCell id="FON76fKN3eNFH8ybnqgi-26" value="Url/api/user" style="text;html=1;align=center;verticalAlign=middle;resizable=0;points=[];autosize=1;strokeColor=none;fillColor=none;" vertex="1" parent="1">
          <mxGeometry x="540" y="420" width="80" height="20" as="geometry" />
        </mxCell>
        <mxCell id="FON76fKN3eNFH8ybnqgi-28" value="UOB_SIS_MOBILE_APP" style="text;html=1;align=center;verticalAlign=middle;resizable=0;points=[];autosize=1;strokeColor=none;fillColor=none;" vertex="1" parent="1">
          <mxGeometry x="470" y="110" width="150" height="20" as="geometry" />
        </mxCell>
      </root>
    </mxGraphModel>
  </diagram>
</mxfile>
